<?xml version="1.0" encoding="UTF-8" standalone="no"?>
<svg
   id="vector"
   width="512"
   height="512"
   viewBox="0 0 1043.5669 1043.5669"
   version="1.1"
   sodipodi:docname="ic_sd_flat2.svg"
   inkscape:version="1.3.2 (091e20ef0f, 2023-11-25, custom)"
   xmlns:inkscape="http://www.inkscape.org/namespaces/inkscape"
   xmlns:sodipodi="http://sodipodi.sourceforge.net/DTD/sodipodi-0.dtd"
   xmlns="http://www.w3.org/2000/svg"
   xmlns:svg="http://www.w3.org/2000/svg">
  <defs
     id="defs1" />
  <sodipodi:namedview
     id="namedview1"
     pagecolor="#ffffff"
     bordercolor="#000000"
     borderopacity="0.25"
     inkscape:showpageshadow="2"
     inkscape:pageopacity="0.0"
     inkscape:pagecheckerboard="0"
     inkscape:deskcolor="#d1d1d1"
     inkscape:zoom="1.1857071"
     inkscape:cx="-87.711374"
     inkscape:cy="245.84486"
     inkscape:window-width="1920"
     inkscape:window-height="1130"
     inkscape:window-x="0"
     inkscape:window-y="0"
     inkscape:window-maximized="1"
     inkscape:current-layer="vector" />
  <rect
     style="fill:#f2efef;fill-opacity:1;stroke-width:6.58898"
     id="rect1"
     width="1043.5669"
     height="1043.5669"
     x="0"
     y="0" />
  <path
     fill="#0cb996"
     d="m 214.05351,557.16689 c 1.22293,0.2242 2.54777,1.08026 4.01528,2.58854 -1.22293,-0.22421 -2.54777,-1.10064 -4.01528,-2.58854 z"
     stroke="#00000000"
     id="path_0"
     style="stroke-width:2.03821" />
  <path
     fill="#222628"
     d="m 656.75415,614.03313 c -32.40764,0.10191 -63.89809,0.10191 -95.95923,0.10191 0,-53.707 0,-108.16815 0,-165.19745 35.93375,1.61019 72.19363,0.10191 107.33248,5.64586 45.96179,7.23567 69.19746,41.51847 65.73249,87.8879 -2.85351,38.37962 -33.93631,67.52611 -77.10574,71.56178 M 678.44078,538.293 c 0.81528,-35.66879 -20.1172,-50.42547 -62.22675,-43.76051 0,25.84459 0,51.70956 0,77.51338 41.8242,2.64968 54.90955,-4.17834 62.22675,-33.75287 z"
     stroke="#00000000"
     id="path_2"
     style="stroke-width:2.03821" />
  <path
     fill="#232729"
     d="m 437.9516,611.46498 c -39.7656,14.24713 -77.12612,8.05096 -114.75159,-8.25478 6.19617,-14.00254 11.90318,-26.90446 17.89554,-40.41783 19.60764,9.72229 39.70446,15.91847 61.55414,14.02293 2.36433,-0.18344 5.13631,0.16306 6.9707,-0.95796 2.91465,-1.81402 7.03185,-4.48408 7.27643,-7.093 0.22421,-2.52739 -3.28153,-6.9707 -6.07388,-7.92866 -9.86497,-3.36306 -20.15796,-5.50318 -30.22675,-8.33631 -8.41784,-2.38471 -16.97835,-4.58598 -25.11083,-7.80637 -16.71338,-6.6242 -27.37325,-18.6293 -29.16688,-37.01401 -1.85478,-19.07771 5.21783,-34.46624 20.66751,-45.88025 15.10319,-11.14905 32.75415,-14.55287 50.85351,-14.9809 22.86879,-0.52993 45.22802,2.81274 66.75159,14.32867 -5.36051,12.98344 -10.68025,25.90573 -15.34777,37.2586 -16.06115,-3.30192 -31.00127,-6.7465 -46.10446,-9.25351 -4.78981,-0.7949 -10.35414,0 -14.87898,1.79363 -3.09809,1.22293 -6.54267,5.2586 -6.92994,8.39746 -0.30573,2.36433 3.52612,6.80764 6.33886,7.70445 10.59872,3.36306 21.58471,5.56434 32.36688,8.37707 6.52229,1.71211 13.10573,3.38344 19.4242,5.70701 17.36561,6.4 29.81911,17.2637 31.83694,36.95287 2.20128,21.4828 -6.68535,37.44204 -24.51974,48.83567 -2.56815,1.65095 -5.38089,2.87388 -8.82548,4.54522 z"
     stroke="#00000000"
     id="path_3"
     style="stroke-width:2.03821" />
  <path
     fill="#E5EFED00"
     d="m 720.79492,649.33504 c -10.21147,0.59109 -21.09554,0.65223 -32.89682,0.57071 10.10956,-0.46879 21.17707,-0.77453 32.89682,-0.57071 z"
     stroke="#00000000"
     id="path_5"
     style="stroke-width:2.03821" />
  <path
     fill="#12847d"
     d="m 197.87007,537.11084 c -39.92867,12.98344 -24.33631,41.74267 -18.6293,57.17197 -15.73503,35.22039 -24.96816,116.01529 26.72102,122.39491 11.78089,-2.30318 25.09044,-5.19745 36.72866,-12.2293 27.25096,-16.46879 49.28408,-44.14777 49.36561,-57.47771 v -93.65605 c 0,-13.77834 -2.09937,-16.20382 -16.20383,-16.20382 z"
     stroke-width="1.92464"
     id="path_6" />
  <path
     fill="#70a62a"
     d="m 851.11849,540.08664 c 39.92866,12.98343 24.3363,41.74267 18.6293,57.17197 15.73503,35.22038 24.96815,116.01529 -26.72102,122.39491 -11.78089,-2.30319 -25.09045,-5.19745 -36.72866,-12.2293 -27.25096,-16.46879 -49.28408,-44.14777 -49.36561,-57.47771 v -93.65605 c 0,-13.77835 2.09936,-16.20382 16.20382,-16.20382 z"
     stroke-width="1.92464"
     id="path_7" />
  <path
     fill="#0794c5"
     d="m 332.41275,649.4981 c -11.27134,0 -17.14141,7.82675 -24.84586,20.89172 -20.99364,35.44459 -52.40255,66.52739 -88.51975,69.91083 -0.97835,-0.16306 -0.38726,37.56433 1.9363,46.34905 4.62676,17.08025 18.38472,34.01783 42.02803,35.56688 0.77452,0.26497 1.58981,0.46879 2.46624,0.52993 l 20.23949,1.50828 c 0.38726,15.28663 6.90956,29.493 17.63058,38.42039 7.86751,9.31465 20.21911,14.81783 33.34522,14.8586 23.11338,0 41.84459,-16.59109 41.84459,-37.05478 0,-0.99873 -0.0611,-2.01784 -0.14268,-3.01656 0.3465,-1.4879 0.55032,-3.01656 0.55032,-4.62675 0.75414,-110.73631 -4.01529,-89.3758 51.70956,-140.77963 9.57961,-9.86496 22.01274,1.69172 14.55286,10.08918 l -34.6293,35.44458 c -0.81528,0.73376 -1.58981,1.52867 -2.34395,2.34395 l -3.58726,3.58726 c -4.32102,6.05351 -5.17707,13.1465 -5.21783,19.22039 v 71.41911 c 0,4.09681 0.75414,8.01019 2.07898,11.63821 4.46369,17.97707 28.67771,31.2051 57.11083,31.24586 31.97962,0 57.90573,-16.59108 57.90573,-37.07516 0,-0.65223 -0.0408,-1.30445 -0.0815,-1.95668 0.14268,-1.2637 0.24459,-2.54778 0.24459,-3.87262 v -71.41911 c 0,-1.22293 -0.0815,-2.44586 -0.20382,-3.6484 V 663.5618 c 0,-7.72484 -6.21656,-13.9414 -13.9414,-13.9414 h -30.8586 c -0.22421,0 -0.42803,-0.0408 -0.65223,-0.0408 H 360.15287 c -0.50955,-0.0408 -1.0191,-0.0815 -1.54904,-0.0815 z m 117.17707,79.14395 v 0.14268 h -0.14268 z"
     stroke-width="1.84674"
     stroke="#00000000"
     id="path_8" />
  <path
     fill="#09a088"
     d="m 717.49301,649.35543 c 11.27134,0 17.1414,7.82675 24.84586,20.89172 20.99363,35.44458 52.40255,66.52739 88.51975,69.91083 0.97834,-0.16306 0.38726,37.56433 -1.93631,46.34904 -4.62675,17.08026 -18.38471,34.01784 -42.02803,35.56688 -0.77452,0.26497 -1.58981,0.46879 -2.46624,0.52994 l -20.23949,1.50828 c -0.38726,15.28662 -6.90955,29.49299 -17.63057,38.42038 -7.86752,9.31465 -20.21911,14.81784 -33.34523,14.8586 -23.11337,0 -41.84458,-16.59108 -41.84458,-37.05478 0,-0.99872 0.0611,-2.01783 0.14267,-3.01656 -0.3465,-1.4879 -0.55032,-3.01656 -0.55032,-4.62675 -0.75414,-110.73631 4.01529,-89.3758 -51.70955,-140.77962 -9.57962,-9.86497 -22.01274,1.69172 -14.55287,10.08917 l 34.6293,35.44459 c 0.81529,0.73376 1.58981,1.52866 2.34395,2.34395 l 3.58726,3.58726 c 4.32102,6.0535 5.17707,13.1465 5.21784,19.22038 v 71.41911 c 0,4.09682 -0.75414,8.01019 -2.07898,11.63822 -4.4637,17.97707 -28.67771,31.20509 -57.11083,31.24586 -31.97962,0 -57.90574,-16.59108 -57.90574,-37.07516 0,-0.65223 0.0408,-1.30446 0.0815,-1.95669 -0.14267,-1.26369 -0.24458,-2.54777 -0.24458,-3.87261 v -71.41911 c 0,-1.22293 0.0815,-2.44586 0.20382,-3.64841 v -95.51083 c 0,-7.72484 6.21656,-13.9414 13.9414,-13.9414 h 30.8586 c 0.2242,0 0.42802,-0.0408 0.65223,-0.0408 h 110.87898 c 0.50955,-0.0408 1.01911,-0.0815 1.54904,-0.0815 z M 600.31594,728.479 v 0.14267 h 0.14267 z"
     stroke-width="1.84674"
     id="path_9" />
  <path
     fill="#5b42a7"
     d="m 774.03314,291.46497 c -6.72612,0.0204 -4.05605,8.11211 -8.74395,16.44841 -2.56816,4.56561 -8.09172,6.15542 -8.09172,10.02803 l 0.2242,156.82038 c 0,2.11975 0.44841,4.1172 1.24331,5.93121 13.10574,-44.02548 28.55542,-54.07388 83.05733,-68.19872 0.38726,0 0.83567,0.0408 1.28408,0.0815 0.0611,-1.1414 0.12229,-2.09936 0.10191,-2.67006 l -0.63185,-73.35541 C 842.21148,306.69043 800.42804,294.9503 792.3567,293.84967 l -16.85605,-2.28281 c -0.52993,-0.0815 -1.03949,-0.10191 -1.4879,-0.10191 z"
     stroke-width="2.44557"
     id="path_10" />
  <path
     fill="#d2273d"
     d="m 841.92613,403.03695 c 9.88535,0 33.52866,10.43567 33.52866,38.64459 l -0.0204,51.15923 c 0,7.94905 -5.8293,26.02803 -22.60382,26.06879 l -86.60382,0.20383 c -4.87134,0.0204 -8.8051,-3.93376 -8.8051,-8.8051 v -34.20127 c 13.45223,-48.28536 28.0051,-58.41529 84.50446,-73.07007 z"
     stroke-width="2.10686"
     id="path_11" />
  <path
     fill="#814fcb"
     d="m 548.99364,202.41529 c -10.02802,0 -18.09936,8.07134 -18.09936,18.09936 v 177.93631 c 0,10.02803 8.07134,18.09937 18.09936,18.09937 h 21.07516 c 0.32612,0.0408 0.65223,0.0611 0.97835,0.0611 h 75.41401 c 5.27898,0 9.51847,-4.25987 9.53885,-9.53885 l 0.24459,-68.1172 c -0.0815,-3.89299 -2.71083,-6.56306 -4.36178,-8.01019 l -46.57325,-42.76178 c -9.96688,-12.41274 0.87643,-22.48153 12.96305,-12.96306 l 47.36816,42.3949 c 0,0 5.89044,4.58599 8.1121,8.78472 2.24204,4.17834 2.38471,11.43439 2.38471,11.43439 l -0.10191,70.21656 c 0,4.52484 3.62803,8.15287 8.15287,8.15287 h 45.39108 c 4.52484,0 8.15287,-3.62803 8.15287,-8.15287 v -81.38599 c -1.32484,-20.74904 -25.78344,-31.81656 -35.11847,-25.90573 -2.58854,-4.83057 -3.93376,-8.49936 -0.24459,-15.67388 2.77198,-4.62676 7.94905,-6.7465 11.8828,-6.84841 7.82676,-0.20382 15.06242,12.53503 21.56434,12.98344 5.3605,0.36688 9.07006,0.48917 14.98089,-10.55796 3.93376,-7.35797 3.15923,-15.49045 3.15923,-20.09682 0,-16.63185 -16.87643,-32.5707 -51.85223,-33.12102 -21.34013,0.0204 -35.91337,6.92994 -50.89427,7.80637 l -13.83949,-16 c -16.87643,-15.63312 -18.507,-14.20637 -19.01656,-14.6344 -8.17325,-2.34394 -17.4879,-2.26242 -35.4242,-2.18089 z"
     stroke-width="2.23557"
     id="path_12" />
  <path
     fill="#f36628"
     d="m 456.76434,196.76943 c -50.79236,3.85223 -41.43694,32.48917 -63.93885,37.11593 -13.02421,1.61019 -33.75287,-14.24714 -60.41274,-11.18981 -30.34905,3.97452 -52.52485,25.78344 -49.52867,48.71337 3.79109,22.44077 16.93758,22.99109 20.58599,36.40255 5.01401,11.82166 -6.66497,16 -14.75669,8.96815 -19.7707,-25.92611 -23.25605,-28.82038 -37.46242,-30.12484 -25.23312,-0.14267 -45.67643,28.75924 -45.83949,61.39109 -0.16306,1.58981 -0.28535,3.2 -0.28535,4.85095 v 49.73249 c -19.70956,0.83567 -35.70956,18.46624 -35.64841,38.35923 l 0.16306,52.6879 c 0.0611,20.36179 6.11465,26.02803 26.47643,26.00765 l 73.39618,-0.1223 c 15.38854,-0.0204 22.46115,-0.89681 22.46115,-21.2586 l -0.26497,-46.77707 c -0.14268,-7.56178 -0.0408,-27.39363 20.81019,-33.16178 l 180.03567,-3.13885 c 10.27262,-0.18344 18.54778,-8.27516 18.54778,-18.54778 v -61.28917 c 0,-0.81528 -0.0611,-1.61019 -0.16306,-2.40509 v -91.55669 c 0,-8.86625 -3.01656,-16.9172 -7.92866,-22.9707 -9.57962,-13.41147 -27.18981,-21.66625 -46.26752,-21.66625 z"
     stroke-width="2.44321"
     id="path_13" />
</svg>
